<svg width="417" height="285" viewBox="0 0 417 285" fill="none" xmlns="http://www.w3.org/2000/svg">
<g filter="url(#filter0_d_130_206)">
<mask id="mask0_130_206" style="mask-type:alpha" maskUnits="userSpaceOnUse" x="25" y="24" width="367" height="235">
<rect x="25" y="24" width="367" height="235" rx="8" fill="#222222"/>
</mask>
<g mask="url(#mask0_130_206)">
<g filter="url(#filter1_d_130_206)">
<path d="M25 32C25 27.5817 28.5817 24 33 24H385.07C389.488 24 393.07 27.5817 393.07 32V251C393.07 255.418 389.488 259 385.07 259H33C28.5817 259 25 255.418 25 251V32Z" fill="#2F1542"/>
</g>
<path d="M251.299 173.595C229.627 170.34 204.684 172.692 184.994 175.906C162.571 179.565 139.138 176.713 119.69 164.968C94.0452 149.479 62.6749 146.733 34.729 157.531L25.535 161.083L16.4402 266.616H324.592L322.813 252.871C322.217 248.267 321.146 243.751 319.272 239.504C311.924 222.857 289.266 179.298 251.299 173.595Z" fill="url(#paint0_linear_130_206)" fill-opacity="0.05"/>
<ellipse cx="357.226" cy="56.0949" rx="128.931" ry="131.1" fill="url(#paint1_linear_130_206)" fill-opacity="0.05"/>
<mask id="mask1_130_206" style="mask-type:alpha" maskUnits="userSpaceOnUse" x="50" y="60" width="35" height="28">
<rect x="50.6793" y="60.9907" width="34.2391" height="26.1111" rx="8" fill="#FFBA49"/>
</mask>
<g mask="url(#mask1_130_206)">
<rect x="50.6793" y="60.9907" width="34.2391" height="26.1111" rx="8" fill="#FFBA49"/>
<rect x="44.2595" y="63.1666" width="21.3994" height="7.61574" rx="2.5" stroke="#D29634" stroke-width="0.3"/>
<rect x="44.2595" y="70.7825" width="21.3994" height="7.61574" rx="2.5" stroke="#D29634" stroke-width="0.3"/>
<rect x="44.2595" y="78.3982" width="21.3994" height="7.61574" rx="2.5" stroke="#D29634" stroke-width="0.3"/>
<rect x="71.0088" y="63.1666" width="21.3994" height="7.61574" rx="2.5" stroke="#D29634" stroke-width="0.3"/>
<rect x="71.0088" y="70.7825" width="21.3994" height="7.61574" rx="2.5" stroke="#D29634" stroke-width="0.3"/>
<rect x="71.0088" y="78.3982" width="21.3994" height="7.61574" rx="2.5" stroke="#D29634" stroke-width="0.3"/>
</g>
<path d="M64.7422 128.109C64.2862 128.109 63.9262 127.773 63.9262 127.389C63.9262 126.477 64.2622 125.469 64.3822 124.557C63.6382 125.109 62.9662 125.901 62.1742 126.357C61.8382 126.573 61.3582 126.429 61.1422 126.021C60.9022 125.637 61.0222 125.157 61.3582 124.965C62.1502 124.509 63.2062 124.317 64.0462 123.957C63.1822 123.597 62.1502 123.381 61.3582 122.925C61.0222 122.733 60.9022 122.277 61.1422 121.869C61.3582 121.485 61.8382 121.341 62.1742 121.533C62.9662 121.989 63.6622 122.805 64.3822 123.357C64.2622 122.445 63.9262 121.437 63.9262 120.525C63.9262 120.141 64.2862 119.805 64.7182 119.805C65.1742 119.805 65.5342 120.141 65.5342 120.525C65.5342 121.437 65.1742 122.445 65.0542 123.357C65.7982 122.805 66.4942 122.013 67.2862 121.557C67.6222 121.341 68.1022 121.485 68.3182 121.893C68.5582 122.277 68.4142 122.757 68.0782 122.949C67.3102 123.405 66.2542 123.597 65.3902 123.957C66.2542 124.317 67.3102 124.533 68.0782 124.989C68.4142 125.181 68.5582 125.637 68.3182 126.045C68.1022 126.429 67.6222 126.573 67.2862 126.381C66.4942 125.925 65.7982 125.109 65.0782 124.557C65.1982 125.469 65.5582 126.477 65.5582 127.389C65.5582 127.773 65.1982 128.109 64.7422 128.109ZM80.3559 128.109C79.8999 128.109 79.5399 127.773 79.5399 127.389C79.5399 126.477 79.8759 125.469 79.9959 124.557C79.2519 125.109 78.5799 125.901 77.7879 126.357C77.4519 126.573 76.9719 126.429 76.7559 126.021C76.5159 125.637 76.6359 125.157 76.9719 124.965C77.7639 124.509 78.8199 124.317 79.6599 123.957C78.7959 123.597 77.7639 123.381 76.9719 122.925C76.6359 122.733 76.5159 122.277 76.7559 121.869C76.9719 121.485 77.4519 121.341 77.7879 121.533C78.5799 121.989 79.2759 122.805 79.9959 123.357C79.8759 122.445 79.5399 121.437 79.5399 120.525C79.5399 120.141 79.8999 119.805 80.3319 119.805C80.7879 119.805 81.1479 120.141 81.1479 120.525C81.1479 121.437 80.7879 122.445 80.6679 123.357C81.4119 122.805 82.1079 122.013 82.8999 121.557C83.2359 121.341 83.7159 121.485 83.9319 121.893C84.1719 122.277 84.0279 122.757 83.6919 122.949C82.9239 123.405 81.8679 123.597 81.0039 123.957C81.8679 124.317 82.9239 124.533 83.6919 124.989C84.0279 125.181 84.1719 125.637 83.9319 126.045C83.7159 126.429 83.2359 126.573 82.8999 126.381C82.1079 125.925 81.4119 125.109 80.6919 124.557C80.8119 125.469 81.1719 126.477 81.1719 127.389C81.1719 127.773 80.8119 128.109 80.3559 128.109ZM95.9696 128.109C95.5136 128.109 95.1536 127.773 95.1536 127.389C95.1536 126.477 95.4896 125.469 95.6096 124.557C94.8656 125.109 94.1936 125.901 93.4016 126.357C93.0656 126.573 92.5856 126.429 92.3696 126.021C92.1296 125.637 92.2496 125.157 92.5856 124.965C93.3776 124.509 94.4336 124.317 95.2736 123.957C94.4096 123.597 93.3776 123.381 92.5856 122.925C92.2496 122.733 92.1296 122.277 92.3696 121.869C92.5856 121.485 93.0656 121.341 93.4016 121.533C94.1936 121.989 94.8896 122.805 95.6096 123.357C95.4896 122.445 95.1536 121.437 95.1536 120.525C95.1536 120.141 95.5136 119.805 95.9456 119.805C96.4016 119.805 96.7616 120.141 96.7616 120.525C96.7616 121.437 96.4016 122.445 96.2816 123.357C97.0256 122.805 97.7216 122.013 98.5136 121.557C98.8496 121.341 99.3296 121.485 99.5456 121.893C99.7856 122.277 99.6416 122.757 99.3056 122.949C98.5376 123.405 97.4816 123.597 96.6176 123.957C97.4816 124.317 98.5376 124.533 99.3056 124.989C99.6416 125.181 99.7856 125.637 99.5456 126.045C99.3296 126.429 98.8496 126.573 98.5136 126.381C97.7216 125.925 97.0256 125.109 96.3056 124.557C96.4256 125.469 96.7856 126.477 96.7856 127.389C96.7856 127.773 96.4256 128.109 95.9696 128.109ZM111.583 128.109C111.127 128.109 110.767 127.773 110.767 127.389C110.767 126.477 111.103 125.469 111.223 124.557C110.479 125.109 109.807 125.901 109.015 126.357C108.679 126.573 108.199 126.429 107.983 126.021C107.743 125.637 107.863 125.157 108.199 124.965C108.991 124.509 110.047 124.317 110.887 123.957C110.023 123.597 108.991 123.381 108.199 122.925C107.863 122.733 107.743 122.277 107.983 121.869C108.199 121.485 108.679 121.341 109.015 121.533C109.807 121.989 110.503 122.805 111.223 123.357C111.103 122.445 110.767 121.437 110.767 120.525C110.767 120.141 111.127 119.805 111.559 119.805C112.015 119.805 112.375 120.141 112.375 120.525C112.375 121.437 112.015 122.445 111.895 123.357C112.639 122.805 113.335 122.013 114.127 121.557C114.463 121.341 114.943 121.485 115.159 121.893C115.399 122.277 115.255 122.757 114.919 122.949C114.151 123.405 113.095 123.597 112.231 123.957C113.095 124.317 114.151 124.533 114.919 124.989C115.255 125.181 115.399 125.637 115.159 126.045C114.943 126.429 114.463 126.573 114.127 126.381C113.335 125.925 112.639 125.109 111.919 124.557C112.039 125.469 112.399 126.477 112.399 127.389C112.399 127.773 112.039 128.109 111.583 128.109ZM133.586 128.109C133.13 128.109 132.77 127.773 132.77 127.389C132.77 126.477 133.106 125.469 133.226 124.557C132.482 125.109 131.81 125.901 131.018 126.357C130.682 126.573 130.202 126.429 129.986 126.021C129.746 125.637 129.866 125.157 130.202 124.965C130.994 124.509 132.05 124.317 132.89 123.957C132.026 123.597 130.994 123.381 130.202 122.925C129.866 122.733 129.746 122.277 129.986 121.869C130.202 121.485 130.682 121.341 131.018 121.533C131.81 121.989 132.506 122.805 133.226 123.357C133.106 122.445 132.77 121.437 132.77 120.525C132.77 120.141 133.13 119.805 133.562 119.805C134.018 119.805 134.378 120.141 134.378 120.525C134.378 121.437 134.018 122.445 133.898 123.357C134.642 122.805 135.338 122.013 136.13 121.557C136.466 121.341 136.946 121.485 137.162 121.893C137.402 122.277 137.258 122.757 136.922 122.949C136.154 123.405 135.098 123.597 134.234 123.957C135.098 124.317 136.154 124.533 136.922 124.989C137.258 125.181 137.402 125.637 137.162 126.045C136.946 126.429 136.466 126.573 136.13 126.381C135.338 125.925 134.642 125.109 133.922 124.557C134.042 125.469 134.402 126.477 134.402 127.389C134.402 127.773 134.042 128.109 133.586 128.109ZM149.2 128.109C148.744 128.109 148.384 127.773 148.384 127.389C148.384 126.477 148.72 125.469 148.84 124.557C148.096 125.109 147.424 125.901 146.632 126.357C146.296 126.573 145.816 126.429 145.6 126.021C145.36 125.637 145.48 125.157 145.816 124.965C146.608 124.509 147.664 124.317 148.504 123.957C147.64 123.597 146.608 123.381 145.816 122.925C145.48 122.733 145.36 122.277 145.6 121.869C145.816 121.485 146.296 121.341 146.632 121.533C147.424 121.989 148.12 122.805 148.84 123.357C148.72 122.445 148.384 121.437 148.384 120.525C148.384 120.141 148.744 119.805 149.176 119.805C149.632 119.805 149.992 120.141 149.992 120.525C149.992 121.437 149.632 122.445 149.512 123.357C150.256 122.805 150.952 122.013 151.744 121.557C152.08 121.341 152.56 121.485 152.776 121.893C153.016 122.277 152.872 122.757 152.536 122.949C151.768 123.405 150.712 123.597 149.848 123.957C150.712 124.317 151.768 124.533 152.536 124.989C152.872 125.181 153.016 125.637 152.776 126.045C152.56 126.429 152.08 126.573 151.744 126.381C150.952 125.925 150.256 125.109 149.536 124.557C149.656 125.469 150.016 126.477 150.016 127.389C150.016 127.773 149.656 128.109 149.2 128.109ZM164.813 128.109C164.357 128.109 163.997 127.773 163.997 127.389C163.997 126.477 164.333 125.469 164.453 124.557C163.709 125.109 163.037 125.901 162.245 126.357C161.909 126.573 161.429 126.429 161.213 126.021C160.973 125.637 161.093 125.157 161.429 124.965C162.221 124.509 163.277 124.317 164.117 123.957C163.253 123.597 162.221 123.381 161.429 122.925C161.093 122.733 160.973 122.277 161.213 121.869C161.429 121.485 161.909 121.341 162.245 121.533C163.037 121.989 163.733 122.805 164.453 123.357C164.333 122.445 163.997 121.437 163.997 120.525C163.997 120.141 164.357 119.805 164.789 119.805C165.245 119.805 165.605 120.141 165.605 120.525C165.605 121.437 165.245 122.445 165.125 123.357C165.869 122.805 166.565 122.013 167.357 121.557C167.693 121.341 168.173 121.485 168.389 121.893C168.629 122.277 168.485 122.757 168.149 122.949C167.381 123.405 166.325 123.597 165.461 123.957C166.325 124.317 167.381 124.533 168.149 124.989C168.485 125.181 168.629 125.637 168.389 126.045C168.173 126.429 167.693 126.573 167.357 126.381C166.565 125.925 165.869 125.109 165.149 124.557C165.269 125.469 165.629 126.477 165.629 127.389C165.629 127.773 165.269 128.109 164.813 128.109ZM180.427 128.109C179.971 128.109 179.611 127.773 179.611 127.389C179.611 126.477 179.947 125.469 180.067 124.557C179.323 125.109 178.651 125.901 177.859 126.357C177.523 126.573 177.043 126.429 176.827 126.021C176.587 125.637 176.707 125.157 177.043 124.965C177.835 124.509 178.891 124.317 179.731 123.957C178.867 123.597 177.835 123.381 177.043 122.925C176.707 122.733 176.587 122.277 176.827 121.869C177.043 121.485 177.523 121.341 177.859 121.533C178.651 121.989 179.347 122.805 180.067 123.357C179.947 122.445 179.611 121.437 179.611 120.525C179.611 120.141 179.971 119.805 180.403 119.805C180.859 119.805 181.219 120.141 181.219 120.525C181.219 121.437 180.859 122.445 180.739 123.357C181.483 122.805 182.179 122.013 182.971 121.557C183.307 121.341 183.787 121.485 184.003 121.893C184.243 122.277 184.099 122.757 183.763 122.949C182.995 123.405 181.939 123.597 181.075 123.957C181.939 124.317 182.995 124.533 183.763 124.989C184.099 125.181 184.243 125.637 184.003 126.045C183.787 126.429 183.307 126.573 182.971 126.381C182.179 125.925 181.483 125.109 180.763 124.557C180.883 125.469 181.243 126.477 181.243 127.389C181.243 127.773 180.883 128.109 180.427 128.109ZM202.429 128.109C201.973 128.109 201.613 127.773 201.613 127.389C201.613 126.477 201.949 125.469 202.069 124.557C201.325 125.109 200.653 125.901 199.861 126.357C199.525 126.573 199.045 126.429 198.829 126.021C198.589 125.637 198.709 125.157 199.045 124.965C199.837 124.509 200.893 124.317 201.733 123.957C200.869 123.597 199.837 123.381 199.045 122.925C198.709 122.733 198.589 122.277 198.829 121.869C199.045 121.485 199.525 121.341 199.861 121.533C200.653 121.989 201.349 122.805 202.069 123.357C201.949 122.445 201.613 121.437 201.613 120.525C201.613 120.141 201.973 119.805 202.405 119.805C202.861 119.805 203.221 120.141 203.221 120.525C203.221 121.437 202.861 122.445 202.741 123.357C203.485 122.805 204.181 122.013 204.973 121.557C205.309 121.341 205.789 121.485 206.005 121.893C206.245 122.277 206.101 122.757 205.765 122.949C204.997 123.405 203.941 123.597 203.077 123.957C203.941 124.317 204.997 124.533 205.765 124.989C206.101 125.181 206.245 125.637 206.005 126.045C205.789 126.429 205.309 126.573 204.973 126.381C204.181 125.925 203.485 125.109 202.765 124.557C202.885 125.469 203.245 126.477 203.245 127.389C203.245 127.773 202.885 128.109 202.429 128.109ZM218.043 128.109C217.587 128.109 217.227 127.773 217.227 127.389C217.227 126.477 217.563 125.469 217.683 124.557C216.939 125.109 216.267 125.901 215.475 126.357C215.139 126.573 214.659 126.429 214.443 126.021C214.203 125.637 214.323 125.157 214.659 124.965C215.451 124.509 216.507 124.317 217.347 123.957C216.483 123.597 215.451 123.381 214.659 122.925C214.323 122.733 214.203 122.277 214.443 121.869C214.659 121.485 215.139 121.341 215.475 121.533C216.267 121.989 216.963 122.805 217.683 123.357C217.563 122.445 217.227 121.437 217.227 120.525C217.227 120.141 217.587 119.805 218.019 119.805C218.475 119.805 218.835 120.141 218.835 120.525C218.835 121.437 218.475 122.445 218.355 123.357C219.099 122.805 219.795 122.013 220.587 121.557C220.923 121.341 221.403 121.485 221.619 121.893C221.859 122.277 221.715 122.757 221.379 122.949C220.611 123.405 219.555 123.597 218.691 123.957C219.555 124.317 220.611 124.533 221.379 124.989C221.715 125.181 221.859 125.637 221.619 126.045C221.403 126.429 220.923 126.573 220.587 126.381C219.795 125.925 219.099 125.109 218.379 124.557C218.499 125.469 218.859 126.477 218.859 127.389C218.859 127.773 218.499 128.109 218.043 128.109ZM233.657 128.109C233.201 128.109 232.841 127.773 232.841 127.389C232.841 126.477 233.177 125.469 233.297 124.557C232.553 125.109 231.881 125.901 231.089 126.357C230.753 126.573 230.273 126.429 230.057 126.021C229.817 125.637 229.937 125.157 230.273 124.965C231.065 124.509 232.121 124.317 232.961 123.957C232.097 123.597 231.065 123.381 230.273 122.925C229.937 122.733 229.817 122.277 230.057 121.869C230.273 121.485 230.753 121.341 231.089 121.533C231.881 121.989 232.577 122.805 233.297 123.357C233.177 122.445 232.841 121.437 232.841 120.525C232.841 120.141 233.201 119.805 233.633 119.805C234.089 119.805 234.449 120.141 234.449 120.525C234.449 121.437 234.089 122.445 233.969 123.357C234.713 122.805 235.409 122.013 236.201 121.557C236.537 121.341 237.017 121.485 237.233 121.893C237.473 122.277 237.329 122.757 236.993 122.949C236.225 123.405 235.169 123.597 234.305 123.957C235.169 124.317 236.225 124.533 236.993 124.989C237.329 125.181 237.473 125.637 237.233 126.045C237.017 126.429 236.537 126.573 236.201 126.381C235.409 125.925 234.713 125.109 233.993 124.557C234.113 125.469 234.473 126.477 234.473 127.389C234.473 127.773 234.113 128.109 233.657 128.109ZM249.271 128.109C248.815 128.109 248.455 127.773 248.455 127.389C248.455 126.477 248.791 125.469 248.911 124.557C248.167 125.109 247.495 125.901 246.703 126.357C246.367 126.573 245.887 126.429 245.671 126.021C245.431 125.637 245.551 125.157 245.887 124.965C246.679 124.509 247.735 124.317 248.575 123.957C247.711 123.597 246.679 123.381 245.887 122.925C245.551 122.733 245.431 122.277 245.671 121.869C245.887 121.485 246.367 121.341 246.703 121.533C247.495 121.989 248.191 122.805 248.911 123.357C248.791 122.445 248.455 121.437 248.455 120.525C248.455 120.141 248.815 119.805 249.247 119.805C249.703 119.805 250.063 120.141 250.063 120.525C250.063 121.437 249.703 122.445 249.583 123.357C250.327 122.805 251.023 122.013 251.815 121.557C252.151 121.341 252.631 121.485 252.847 121.893C253.087 122.277 252.943 122.757 252.607 122.949C251.839 123.405 250.783 123.597 249.919 123.957C250.783 124.317 251.839 124.533 252.607 124.989C252.943 125.181 253.087 125.637 252.847 126.045C252.631 126.429 252.151 126.573 251.815 126.381C251.023 125.925 250.327 125.109 249.607 124.557C249.727 125.469 250.087 126.477 250.087 127.389C250.087 127.773 249.727 128.109 249.271 128.109ZM273.737 136.941C271.025 136.941 268.937 135.693 267.737 134.109L269.033 132.885C270.113 134.277 271.721 135.237 273.737 135.237C276.041 135.237 277.577 133.965 277.577 132.093C277.577 130.149 275.921 129.165 273.329 129.165H271.577V127.437L273.353 127.461C275.561 127.485 277.217 126.429 277.217 124.557C277.217 122.829 275.633 121.581 273.569 121.581C271.745 121.581 270.449 122.493 269.273 123.909L268.025 122.781C269.273 121.125 271.097 119.877 273.665 119.877C276.809 119.877 279.113 121.701 279.113 124.341C279.113 126.453 277.625 127.701 275.921 128.205C277.601 128.589 279.473 129.813 279.473 132.189C279.473 134.949 277.169 136.941 273.737 136.941ZM287.68 119.877C292.144 119.877 293.944 123.501 293.944 128.157C293.944 133.077 291.016 136.941 287.272 136.941C285.256 136.941 283.816 136.149 282.592 134.973L283.624 133.509C284.656 134.517 285.736 135.237 287.32 135.237C289.96 135.237 292.048 132.117 292.048 128.157V127.941C291.04 129.525 289.336 130.461 287.392 130.461C284.392 130.461 281.872 128.589 281.872 125.325C281.872 122.277 284.248 119.877 287.68 119.877ZM287.728 128.853C289.816 128.853 291.424 127.605 291.832 125.781C291.352 123.285 290.008 121.485 287.704 121.485C285.232 121.485 283.768 123.405 283.768 125.229C283.768 127.485 285.52 128.853 287.728 128.853ZM304.409 136.653V132.645H296.177L295.937 131.085L304.121 120.165H306.281V130.941H308.753V132.645H306.281V136.653H304.409ZM298.073 130.941H304.409V122.421L298.073 130.941ZM312.834 136.653L319.866 121.941H310.938V120.165H322.098V121.581L314.994 136.653H312.834Z" fill="white"/>
<path opacity="0.8" d="M49.0385 204.228C47.0785 204.228 45.4285 202.598 45.4285 200.668C45.4285 198.738 47.0785 197.118 49.0385 197.118C50.0485 197.118 50.9685 197.548 51.6285 198.228L50.7385 199.058C50.3185 198.568 49.6985 198.258 49.0385 198.258C47.7685 198.258 46.6985 199.358 46.6985 200.668C46.6985 201.988 47.7685 203.088 49.0385 203.088C49.7085 203.088 50.3185 202.778 50.7485 202.288L51.6285 203.108C50.9685 203.798 50.0485 204.228 49.0385 204.228ZM54.3948 198.818C55.7648 198.818 56.6148 199.688 56.6148 200.998V204.108H55.4248V203.488C55.0448 203.968 54.3948 204.228 53.7948 204.228C52.6948 204.228 51.8648 203.578 51.8648 202.578C51.8648 201.558 52.8148 200.858 53.9748 200.858C54.4448 200.858 54.9548 200.958 55.4248 201.138V200.998C55.4248 200.398 55.0948 199.818 54.1548 199.818C53.6648 199.818 53.1948 199.988 52.7548 200.208L52.3348 199.358C53.0648 198.998 53.7448 198.818 54.3948 198.818ZM54.0648 203.338C54.6548 203.338 55.2848 203.038 55.4248 202.488V201.908C55.0448 201.778 54.6148 201.708 54.1548 201.708C53.5448 201.708 53.0548 202.048 53.0548 202.538C53.0548 203.028 53.4848 203.338 54.0648 203.338ZM58.7778 199.938C59.1078 199.248 59.7778 198.818 60.6278 198.818V199.858C59.5178 199.858 58.7778 200.518 58.7778 201.498V204.108H57.5578V198.938H58.7778V199.938ZM65.0537 197.118H66.2737V204.108H65.0537V203.308C64.6437 203.888 64.0237 204.228 63.2637 204.228C61.8937 204.228 60.8937 203.108 60.8937 201.518C60.8937 199.938 61.8937 198.818 63.2637 198.818C64.0237 198.818 64.6437 199.158 65.0537 199.738V197.118ZM63.5937 203.188C64.4537 203.188 65.0537 202.488 65.0537 201.518C65.0537 200.548 64.4537 199.858 63.5937 199.858C62.7237 199.858 62.1037 200.548 62.1037 201.518C62.1037 202.488 62.7237 203.188 63.5937 203.188ZM74.3832 197.238H75.6332V204.108H74.3832V201.178H70.9532V204.108H69.7032V197.238H70.9532V200.038H74.3832V197.238ZM79.1087 204.228C77.6087 204.228 76.3387 202.988 76.3387 201.518C76.3387 200.048 77.6087 198.818 79.1087 198.818C80.6087 198.818 81.8787 200.048 81.8787 201.518C81.8787 202.988 80.6087 204.228 79.1087 204.228ZM79.1087 203.188C79.9587 203.188 80.6787 202.428 80.6787 201.518C80.6787 200.618 79.9587 199.858 79.1087 199.858C78.2487 199.858 77.5287 200.618 77.5287 201.518C77.5287 202.428 78.2487 203.188 79.1087 203.188ZM82.5288 204.108V197.118H83.7488V204.108H82.5288ZM88.6192 197.118H89.8392V204.108H88.6192V203.308C88.2092 203.888 87.5892 204.228 86.8292 204.228C85.4592 204.228 84.4592 203.108 84.4592 201.518C84.4592 199.938 85.4592 198.818 86.8292 198.818C87.5892 198.818 88.2092 199.158 88.6192 199.738V197.118ZM87.1592 203.188C88.0192 203.188 88.6192 202.488 88.6192 201.518C88.6192 200.548 88.0192 199.858 87.1592 199.858C86.2892 199.858 85.6692 200.548 85.6692 201.518C85.6692 202.488 86.2892 203.188 87.1592 203.188ZM93.2146 203.148C93.6946 203.148 94.2646 202.928 94.5546 202.628L95.3246 203.428C94.8746 203.908 93.9746 204.228 93.2246 204.228C91.7446 204.228 90.5246 203.098 90.5246 201.508C90.5246 199.958 91.6846 198.818 93.1546 198.818C94.7546 198.818 95.6846 200.028 95.6846 201.938H91.7846C91.9346 202.648 92.4746 203.148 93.2146 203.148ZM93.2046 199.898C92.5246 199.898 91.9746 200.328 91.7946 201.008H94.5146C94.3746 200.358 93.9346 199.898 93.2046 199.898ZM97.5841 199.938C97.9141 199.248 98.5841 198.818 99.4341 198.818V199.858C98.3241 199.858 97.5841 200.518 97.5841 201.498V204.108H96.3641V198.938H97.5841V199.938ZM102.484 204.108V197.238H103.734L107.364 202.068V197.238H108.604V204.108H107.364L103.734 199.278V204.108H102.484ZM111.921 198.818C113.291 198.818 114.141 199.688 114.141 200.998V204.108H112.951V203.488C112.571 203.968 111.921 204.228 111.321 204.228C110.221 204.228 109.391 203.578 109.391 202.578C109.391 201.558 110.341 200.858 111.501 200.858C111.971 200.858 112.481 200.958 112.951 201.138V200.998C112.951 200.398 112.621 199.818 111.681 199.818C111.191 199.818 110.721 199.988 110.281 200.208L109.861 199.358C110.591 198.998 111.271 198.818 111.921 198.818ZM111.591 203.338C112.181 203.338 112.811 203.038 112.951 202.488V201.908C112.571 201.778 112.141 201.708 111.681 201.708C111.071 201.708 110.581 202.048 110.581 202.538C110.581 203.028 111.011 203.338 111.591 203.338ZM121.024 198.818C122.104 198.818 122.914 199.648 122.914 200.818V204.108H121.724V201.018C121.724 200.338 121.314 199.858 120.724 199.858C120.054 199.858 119.594 200.308 119.594 200.938V204.108H118.404V201.018C118.404 200.338 117.994 199.858 117.394 199.858C116.734 199.858 116.264 200.308 116.264 200.938V204.108H115.044V198.938H116.264V199.638C116.524 199.138 117.054 198.818 117.704 198.818C118.434 198.818 119.034 199.188 119.354 199.798C119.604 199.198 120.254 198.818 121.024 198.818ZM126.235 203.148C126.715 203.148 127.285 202.928 127.575 202.628L128.345 203.428C127.895 203.908 126.995 204.228 126.245 204.228C124.765 204.228 123.545 203.098 123.545 201.508C123.545 199.958 124.705 198.818 126.175 198.818C127.775 198.818 128.705 200.028 128.705 201.938H124.805C124.955 202.648 125.495 203.148 126.235 203.148ZM126.225 199.898C125.545 199.898 124.995 200.328 124.815 201.008H127.535C127.395 200.358 126.955 199.898 126.225 199.898Z" fill="white"/>
<path opacity="0.8" d="M222.405 197.64H218.485V199.3H222.035V200.44H218.485V202.23H222.405V203.37H217.235V196.5H222.405V197.64ZM227.894 203.37H226.544L225.284 201.64L224.014 203.37H222.684L224.624 200.73L222.774 198.2H224.114L225.294 199.81L226.474 198.2H227.804L225.954 200.72L227.894 203.37ZM231.401 198.08C232.771 198.08 233.771 199.2 233.771 200.78C233.771 202.37 232.771 203.49 231.401 203.49C230.631 203.49 230.011 203.14 229.601 202.55V205.09H228.381V198.2H229.601V199.02C230.011 198.43 230.631 198.08 231.401 198.08ZM231.071 202.45C231.941 202.45 232.561 201.75 232.561 200.78C232.561 199.81 231.941 199.12 231.071 199.12C230.211 199.12 229.611 199.81 229.611 200.78C229.611 201.75 230.211 202.45 231.071 202.45ZM235.087 197.42C234.697 197.42 234.387 197.09 234.387 196.72C234.387 196.35 234.697 196.03 235.087 196.03C235.467 196.03 235.777 196.35 235.777 196.72C235.777 197.09 235.467 197.42 235.087 197.42ZM234.467 203.37V198.2H235.687V203.37H234.467ZM237.877 199.2C238.207 198.51 238.877 198.08 239.727 198.08V199.12C238.617 199.12 237.877 199.78 237.877 200.76V203.37H236.657V198.2H237.877V199.2ZM241.273 205.17C240.883 205.17 240.453 205.07 240.143 204.9L240.403 204.02C240.623 204.14 240.873 204.21 241.063 204.21C241.353 204.21 241.573 204.12 241.723 203.87L241.943 203.41L239.753 198.2H241.043L242.553 202.06L243.973 198.2H245.233L243.043 203.73C242.653 204.71 242.053 205.16 241.273 205.17ZM248.356 203.37V196.5H250.776C253.046 196.5 254.646 197.92 254.646 199.93C254.646 201.94 253.046 203.37 250.776 203.37H248.356ZM249.606 202.24H250.906C252.356 202.24 253.376 201.28 253.376 199.93C253.376 198.58 252.356 197.63 250.906 197.63H249.606V202.24ZM257.675 198.08C259.045 198.08 259.895 198.95 259.895 200.26V203.37H258.705V202.75C258.325 203.23 257.675 203.49 257.075 203.49C255.975 203.49 255.145 202.84 255.145 201.84C255.145 200.82 256.095 200.12 257.255 200.12C257.725 200.12 258.235 200.22 258.705 200.4V200.26C258.705 199.66 258.375 199.08 257.435 199.08C256.945 199.08 256.475 199.25 256.035 199.47L255.615 198.62C256.345 198.26 257.025 198.08 257.675 198.08ZM257.345 202.6C257.935 202.6 258.565 202.3 258.705 201.75V201.17C258.325 201.04 257.895 200.97 257.435 200.97C256.825 200.97 256.335 201.31 256.335 201.8C256.335 202.29 256.765 202.6 257.345 202.6ZM263.388 202.26L263.738 203.08C263.448 203.33 263.028 203.49 262.638 203.49C261.778 203.49 261.178 202.87 261.178 202V199.21H260.428V198.2H261.178V196.78H262.368V198.2H263.538V199.21H262.368V201.85C262.368 202.2 262.588 202.45 262.878 202.45C263.088 202.45 263.278 202.37 263.388 202.26ZM266.687 202.41C267.167 202.41 267.737 202.19 268.027 201.89L268.797 202.69C268.347 203.17 267.447 203.49 266.697 203.49C265.217 203.49 263.997 202.36 263.997 200.77C263.997 199.22 265.157 198.08 266.627 198.08C268.227 198.08 269.157 199.29 269.157 201.2H265.257C265.407 201.91 265.947 202.41 266.687 202.41ZM266.677 199.16C265.997 199.16 265.447 199.59 265.267 200.27H267.987C267.847 199.62 267.407 199.16 266.677 199.16Z" fill="white"/>
<path d="M99.8332 81V67.947H102.208V74.331L107.927 67.947H110.834L105.609 73.704L111.214 81H108.288L103.975 75.376L102.208 77.276V81H99.8332ZM114.598 73.077C115.225 71.766 116.498 70.949 118.113 70.949V72.925C116.004 72.925 114.598 74.179 114.598 76.041V81H112.28V71.177H114.598V73.077ZM120.6 69.695C119.859 69.695 119.27 69.068 119.27 68.365C119.27 67.662 119.859 67.054 120.6 67.054C121.322 67.054 121.911 67.662 121.911 68.365C121.911 69.068 121.322 69.695 120.6 69.695ZM119.422 81V71.177H121.74V81H119.422ZM125.889 84.42C125.148 84.42 124.331 84.23 123.742 83.907L124.236 82.235C124.654 82.463 125.129 82.596 125.49 82.596C126.041 82.596 126.459 82.425 126.744 81.95L127.162 81.076L123.001 71.177H125.452L128.321 78.511L131.019 71.177H133.413L129.252 81.684C128.511 83.546 127.371 84.401 125.889 84.42ZM139.135 70.949C141.738 70.949 143.353 72.602 143.353 75.091V81H141.092V79.822C140.37 80.734 139.135 81.228 137.995 81.228C135.905 81.228 134.328 79.993 134.328 78.093C134.328 76.155 136.133 74.825 138.337 74.825C139.23 74.825 140.199 75.015 141.092 75.357V75.091C141.092 73.951 140.465 72.849 138.679 72.849C137.748 72.849 136.855 73.172 136.019 73.59L135.221 71.975C136.608 71.291 137.9 70.949 139.135 70.949ZM138.508 79.537C139.629 79.537 140.826 78.967 141.092 77.922V76.82C140.37 76.573 139.553 76.44 138.679 76.44C137.52 76.44 136.589 77.086 136.589 78.017C136.589 78.948 137.406 79.537 138.508 79.537ZM152.922 67.719H155.24V81H152.922V79.48C152.143 80.582 150.965 81.228 149.521 81.228C146.918 81.228 145.018 79.1 145.018 76.079C145.018 73.077 146.918 70.949 149.521 70.949C150.965 70.949 152.143 71.595 152.922 72.697V67.719ZM150.148 79.252C151.782 79.252 152.922 77.922 152.922 76.079C152.922 74.236 151.782 72.925 150.148 72.925C148.495 72.925 147.317 74.236 147.317 76.079C147.317 77.922 148.495 79.252 150.148 79.252ZM162.191 81.228C159.341 81.228 156.928 78.872 156.928 76.079C156.928 73.286 159.341 70.949 162.191 70.949C165.041 70.949 167.454 73.286 167.454 76.079C167.454 78.872 165.041 81.228 162.191 81.228ZM162.191 79.252C163.806 79.252 165.174 77.808 165.174 76.079C165.174 74.369 163.806 72.925 162.191 72.925C160.557 72.925 159.189 74.369 159.189 76.079C159.189 77.808 160.557 79.252 162.191 79.252ZM176.348 78.834H183.055V81H173.992V67.947H176.348V78.834ZM185.673 69.695C184.932 69.695 184.343 69.068 184.343 68.365C184.343 67.662 184.932 67.054 185.673 67.054C186.395 67.054 186.984 67.662 186.984 68.365C186.984 69.068 186.395 69.695 185.673 69.695ZM184.495 81V71.177H186.813V81H184.495ZM191.931 70.36V71.177H194.154V73.096H191.931V81H189.67V73.096H188.245V71.177H189.67V70.151C189.67 68.498 190.81 67.32 192.444 67.32C193.185 67.32 193.983 67.624 194.534 68.099L193.869 69.581C193.66 69.372 193.299 69.22 192.9 69.22C192.349 69.22 191.931 69.695 191.931 70.36ZM200.17 79.176C201.082 79.176 202.165 78.758 202.716 78.188L204.179 79.708C203.324 80.62 201.614 81.228 200.189 81.228C197.377 81.228 195.059 79.081 195.059 76.06C195.059 73.115 197.263 70.949 200.056 70.949C203.096 70.949 204.863 73.248 204.863 76.877H197.453C197.738 78.226 198.764 79.176 200.17 79.176ZM200.151 73.001C198.859 73.001 197.814 73.818 197.472 75.11H202.64C202.374 73.875 201.538 73.001 200.151 73.001ZM210.093 81.228C208.592 81.228 206.977 80.696 205.799 79.746L206.844 78.131C207.794 78.815 208.896 79.271 210.131 79.271C211.062 79.271 211.708 78.872 211.708 78.264C211.708 77.504 210.853 77.257 209.732 76.953C207.604 76.402 206.255 75.794 206.236 74.046C206.236 72.203 207.756 70.949 209.941 70.949C211.29 70.949 212.639 71.424 213.703 72.127L212.734 73.818C211.803 73.229 210.796 72.925 209.941 72.925C209.124 72.925 208.497 73.248 208.497 73.799C208.497 74.426 209.01 74.616 210.511 75.053C212.164 75.509 213.95 76.079 213.95 78.131C213.95 80.012 212.392 81.228 210.093 81.228ZM220.458 78.891L221.123 80.449C220.572 80.924 219.774 81.228 219.033 81.228C217.399 81.228 216.259 80.05 216.259 78.397V73.096H214.834V71.177H216.259V68.479H218.52V71.177H220.743V73.096H218.52V78.112C218.52 78.777 218.938 79.252 219.489 79.252C219.888 79.252 220.249 79.1 220.458 78.891ZM224.509 84.42C223.768 84.42 222.951 84.23 222.362 83.907L222.856 82.235C223.274 82.463 223.749 82.596 224.11 82.596C224.661 82.596 225.079 82.425 225.364 81.95L225.782 81.076L221.621 71.177H224.072L226.941 78.511L229.639 71.177H232.033L227.872 81.684C227.131 83.546 225.991 84.401 224.509 84.42ZM233.48 81V67.719H235.798V81H233.48ZM242.531 79.176C243.443 79.176 244.526 78.758 245.077 78.188L246.54 79.708C245.685 80.62 243.975 81.228 242.55 81.228C239.738 81.228 237.42 79.081 237.42 76.06C237.42 73.115 239.624 70.949 242.417 70.949C245.457 70.949 247.224 73.248 247.224 76.877H239.814C240.099 78.226 241.125 79.176 242.531 79.176ZM242.512 73.001C241.22 73.001 240.175 73.818 239.833 75.11H245.001C244.735 73.875 243.899 73.001 242.512 73.001ZM262.728 73.666V75.642H259.251V79.157H257.18V75.642H253.703V73.666H257.18V70.132H259.251V73.666H262.728ZM274.639 81.209C272.397 81.209 270.497 80.449 269.053 79.1L270.421 77.409C271.618 78.492 273.005 79.176 274.715 79.176C276.33 79.176 277.166 78.378 277.166 77.447C277.166 76.364 276.235 76.003 274.145 75.509C271.447 74.882 269.566 74.103 269.566 71.652C269.566 69.372 271.504 67.7 274.259 67.7C276.33 67.7 277.888 68.403 279.199 69.524L277.907 71.272C276.767 70.284 275.456 69.733 274.164 69.733C272.853 69.733 271.96 70.531 271.96 71.443C271.96 72.507 272.929 72.887 275 73.362C277.717 73.97 279.541 74.844 279.541 77.219C279.541 79.556 277.755 81.209 274.639 81.209ZM285.802 79.176C286.714 79.176 287.797 78.758 288.348 78.188L289.811 79.708C288.956 80.62 287.246 81.228 285.821 81.228C283.009 81.228 280.691 79.081 280.691 76.06C280.691 73.115 282.895 70.949 285.688 70.949C288.728 70.949 290.495 73.248 290.495 76.877H283.085C283.37 78.226 284.396 79.176 285.802 79.176ZM285.783 73.001C284.491 73.001 283.446 73.818 283.104 75.11H288.272C288.006 73.875 287.17 73.001 285.783 73.001ZM294.471 73.077C295.098 71.766 296.371 70.949 297.986 70.949V72.925C295.877 72.925 294.471 74.179 294.471 76.041V81H292.153V71.177H294.471V73.077ZM302.582 81L298.364 71.177H300.815L303.665 78.321L306.458 71.177H308.928L304.767 81H302.582ZM311.31 69.695C310.569 69.695 309.98 69.068 309.98 68.365C309.98 67.662 310.569 67.054 311.31 67.054C312.032 67.054 312.621 67.662 312.621 68.365C312.621 69.068 312.032 69.695 311.31 69.695ZM310.132 81V71.177H312.45V81H310.132ZM319.334 81.228C316.503 81.228 314.09 78.872 314.09 76.079C314.09 73.286 316.503 70.949 319.372 70.949C320.854 70.949 322.165 71.576 323.096 72.545L321.538 73.913C321.006 73.324 320.189 72.925 319.353 72.925C317.738 72.925 316.389 74.369 316.389 76.079C316.389 77.808 317.738 79.252 319.353 79.252C320.208 79.252 321.044 78.853 321.595 78.226L323.153 79.575C322.203 80.582 320.892 81.228 319.334 81.228ZM329.147 79.176C330.059 79.176 331.142 78.758 331.693 78.188L333.156 79.708C332.301 80.62 330.591 81.228 329.166 81.228C326.354 81.228 324.036 79.081 324.036 76.06C324.036 73.115 326.24 70.949 329.033 70.949C332.073 70.949 333.84 73.248 333.84 76.877H326.43C326.715 78.226 327.741 79.176 329.147 79.176ZM329.128 73.001C327.836 73.001 326.791 73.818 326.449 75.11H331.617C331.351 73.875 330.515 73.001 329.128 73.001ZM339.07 81.228C337.569 81.228 335.954 80.696 334.776 79.746L335.821 78.131C336.771 78.815 337.873 79.271 339.108 79.271C340.039 79.271 340.685 78.872 340.685 78.264C340.685 77.504 339.83 77.257 338.709 76.953C336.581 76.402 335.232 75.794 335.213 74.046C335.213 72.203 336.733 70.949 338.918 70.949C340.267 70.949 341.616 71.424 342.68 72.127L341.711 73.818C340.78 73.229 339.773 72.925 338.918 72.925C338.101 72.925 337.474 73.248 337.474 73.799C337.474 74.426 337.987 74.616 339.488 75.053C341.141 75.509 342.927 76.079 342.927 78.131C342.927 80.012 341.369 81.228 339.07 81.228Z" fill="white"/>
<mask id="mask2_130_206" style="mask-type:luminance" maskUnits="userSpaceOnUse" x="273" y="198" width="120" height="33">
<path d="M392.205 198.528H273.428V230.547H392.205V198.528Z" fill="white"/>
</mask>
<g mask="url(#mask2_130_206)">
<path d="M336.94 225.906V225.041H337.352C337.562 225.041 337.58 224.903 337.58 224.762V221.494C337.58 221.351 337.465 221.235 337.325 221.235H336.94V220.391H338.98V221.344C338.98 221.374 339 221.399 339.029 221.404C339.033 221.405 339.037 221.406 339.04 221.406C339.065 221.406 339.087 221.391 339.096 221.368C339.49 220.388 340.556 220.388 340.906 220.388C340.966 220.388 341.022 220.389 341.07 220.39C341.085 220.39 341.1 220.39 341.113 220.391V221.949C341.082 221.949 341.045 221.948 341.002 221.948C340.505 221.948 340.106 222.035 339.784 222.214C339.251 222.509 338.98 223.035 338.98 223.777V224.782C338.98 224.84 338.995 224.891 339.025 224.935C339.073 225.005 339.156 225.041 339.24 225.041H339.62V225.906H336.94Z" fill="white"/>
<path d="M335.488 217.797V220.324C335.488 220.377 335.463 220.425 335.423 220.451L333.444 221.738L332.405 221.062L335.109 219.237C335.124 219.227 335.129 219.205 335.12 219.188C335.111 219.171 335.092 219.166 335.077 219.176L332.342 221.022L332.137 220.888L335.109 218.882C335.124 218.872 335.129 218.85 335.12 218.833C335.111 218.816 335.092 218.811 335.077 218.82L332.074 220.848L331.869 220.714L335.109 218.527C335.124 218.517 335.129 218.495 335.12 218.478C335.111 218.461 335.092 218.455 335.077 218.465L331.806 220.674L331.625 220.555C331.623 220.554 331.622 220.554 331.621 220.553C331.48 220.458 331.485 220.245 331.628 220.153L335.36 217.726C335.415 217.69 335.488 217.73 335.488 217.797Z" fill="#512C6B"/>
<path d="M335.487 225.968L331.662 223.481C331.544 223.404 331.471 223.261 331.471 223.106V220.543L331.483 220.563C331.506 220.601 331.537 220.634 331.575 220.659L335.361 223.12C335.439 223.171 335.487 223.266 335.487 223.369V225.968Z" fill="#80509F"/>
<path d="M335.895 224.75C335.818 224.75 335.756 224.687 335.756 224.61C335.756 224.532 335.818 224.469 335.895 224.469C335.971 224.469 336.033 224.532 336.033 224.61C336.033 224.687 335.971 224.75 335.895 224.75ZM336.139 224.337C336.069 224.267 335.974 224.224 335.869 224.224H335.488V224.996H335.869C336.079 224.996 336.25 224.823 336.25 224.61C336.25 224.503 336.207 224.406 336.139 224.337Z" fill="#512C6B"/>
<path d="M328.384 216.899V218.075H328.813C328.985 218.075 329.132 218.213 329.134 218.388V224.464C329.132 224.639 328.985 224.776 328.813 224.776H328.384V225.968H330.963V216.899H328.384Z" fill="#80509F"/>
<path d="M346.511 227.858C346.235 227.858 345.988 227.836 345.776 227.794C345.666 227.771 345.562 227.746 345.461 227.718L345.46 226.439C345.594 226.487 345.715 226.524 345.829 226.551C345.987 226.59 346.148 226.609 346.307 226.609C346.971 226.609 347.084 225.984 347.086 225.978C347.088 225.96 347.084 225.942 347.072 225.928C347.061 225.914 347.044 225.906 347.026 225.906H346.684L345.056 221.52C345.055 221.518 345.053 221.515 345.053 221.513C345.025 221.457 344.985 221.403 344.935 221.352C344.934 221.351 344.934 221.351 344.933 221.35C344.858 221.276 344.754 221.238 344.649 221.237C344.541 221.237 344.398 221.236 344.394 221.235H344.215V220.392H347.053V221.235H346.751C346.672 221.235 346.592 221.265 346.542 221.328C346.484 221.399 346.472 221.489 346.509 221.59L347.446 224.435C347.454 224.46 347.477 224.477 347.503 224.477H347.504C347.531 224.477 347.554 224.459 347.561 224.433L348.405 221.587C348.428 221.527 348.428 221.46 348.404 221.397L348.403 221.395C348.367 221.299 348.276 221.235 348.174 221.235H347.963V220.392H350.792V221.235H350.697C350.693 221.236 350.542 221.237 350.427 221.237C350.248 221.238 350.079 221.345 350.016 221.515C350.015 221.517 350.015 221.518 350.014 221.519L348.373 226.284C348.298 226.51 348.206 226.726 348.1 226.928C347.998 227.117 347.873 227.283 347.727 227.419C347.583 227.553 347.409 227.661 347.212 227.74C347.017 227.818 346.781 227.858 346.511 227.858Z" fill="white"/>
<path d="M353.548 221.61C352.703 221.61 352.016 222.306 352.016 223.162C352.016 224.017 352.703 224.712 353.548 224.712C354.049 224.712 354.519 224.464 354.805 224.047C354.811 224.037 354.815 224.025 354.815 224.012V222.311C354.815 222.298 354.811 222.286 354.805 222.276C354.518 221.859 354.048 221.61 353.548 221.61ZM353.575 225.906C352.08 225.906 350.863 224.675 350.863 223.161C350.863 221.648 352.08 220.416 353.575 220.416C353.978 220.416 354.366 220.505 354.729 220.678C354.737 220.682 354.746 220.684 354.755 220.684C354.766 220.684 354.777 220.681 354.787 220.674C354.805 220.663 354.815 220.644 354.815 220.623V220.382H356.119V224.71C356.119 224.769 356.134 224.82 356.164 224.864C356.211 224.934 356.295 224.97 356.378 224.97H356.759V225.835H354.815V225.7C354.815 225.679 354.805 225.659 354.787 225.648C354.777 225.642 354.766 225.639 354.755 225.639C354.746 225.639 354.737 225.641 354.729 225.644C354.368 225.818 353.979 225.906 353.575 225.906Z" fill="white"/>
<path d="M359.443 221.601C358.598 221.601 357.911 222.297 357.911 223.153C357.911 224.008 358.598 224.703 359.443 224.703C359.944 224.703 360.414 224.455 360.7 224.038C360.707 224.028 360.71 224.015 360.71 224.003V222.302C360.71 222.289 360.707 222.277 360.7 222.267C360.413 221.85 359.944 221.601 359.443 221.601ZM359.47 225.897C357.975 225.897 356.759 224.666 356.759 223.152C356.759 221.639 357.975 220.407 359.47 220.407C359.873 220.407 360.262 220.495 360.624 220.669C360.632 220.673 360.641 220.675 360.65 220.675C360.661 220.675 360.672 220.672 360.682 220.665C360.7 220.654 360.71 220.635 360.71 220.614V218.424H362.611V219.278H362.344C362.167 219.278 362.016 219.419 362.014 219.598V224.701C362.014 224.76 362.029 224.811 362.059 224.855C362.106 224.925 362.19 224.96 362.274 224.96H362.654V225.826H360.71V225.691C360.71 225.67 360.7 225.65 360.682 225.639C360.672 225.633 360.661 225.63 360.65 225.63C360.641 225.63 360.632 225.632 360.624 225.636C360.263 225.809 359.874 225.897 359.47 225.897Z" fill="white"/>
<path d="M341.535 225.895V225.04H341.849C342.023 225.04 342.165 224.898 342.166 224.721L342.166 224.716V221.559C342.165 221.38 342.021 221.235 341.844 221.235H341.535V220.391H343.584V224.716C343.584 224.718 343.584 224.719 343.584 224.721C343.586 224.9 343.737 225.04 343.914 225.04H344.215V225.895H341.535Z" fill="white"/>
<path d="M343.746 218.952C343.746 219.439 343.356 219.834 342.875 219.834C342.394 219.834 342.004 219.439 342.004 218.952C342.004 218.464 342.394 218.069 342.875 218.069C343.356 218.069 343.746 218.464 343.746 218.952Z" fill="white"/>
<path d="M365.366 225.902C363.87 225.902 362.654 224.67 362.654 223.156C362.654 221.642 363.87 220.41 365.366 220.41C366.861 220.41 368.078 221.642 368.078 223.156C368.078 224.67 366.861 225.902 365.366 225.902Z" fill="white"/>
<path d="M369.036 225.478C369.036 225.746 368.821 225.963 368.557 225.963C368.292 225.963 368.078 225.746 368.078 225.478C368.078 225.21 368.292 224.993 368.557 224.993C368.821 224.993 369.036 225.21 369.036 225.478Z" fill="#80509F"/>
</g>
</g>
</g>
<defs>
<filter id="filter0_d_130_206" x="0" y="0" width="417" height="285" filterUnits="userSpaceOnUse" color-interpolation-filters="sRGB">
<feFlood flood-opacity="0" result="BackgroundImageFix"/>
<feColorMatrix in="SourceAlpha" type="matrix" values="0 0 0 0 0 0 0 0 0 0 0 0 0 0 0 0 0 0 127 0" result="hardAlpha"/>
<feOffset dy="1"/>
<feGaussianBlur stdDeviation="12.5"/>
<feColorMatrix type="matrix" values="0 0 0 0 0 0 0 0 0 0 0 0 0 0 0 0 0 0 0.34 0"/>
<feBlend mode="normal" in2="BackgroundImageFix" result="effect1_dropShadow_130_206"/>
<feBlend mode="normal" in="SourceGraphic" in2="effect1_dropShadow_130_206" result="shape"/>
</filter>
<filter id="filter1_d_130_206" x="0" y="0" width="418.07" height="285" filterUnits="userSpaceOnUse" color-interpolation-filters="sRGB">
<feFlood flood-opacity="0" result="BackgroundImageFix"/>
<feColorMatrix in="SourceAlpha" type="matrix" values="0 0 0 0 0 0 0 0 0 0 0 0 0 0 0 0 0 0 127 0" result="hardAlpha"/>
<feOffset dy="1"/>
<feGaussianBlur stdDeviation="12.5"/>
<feColorMatrix type="matrix" values="0 0 0 0 0 0 0 0 0 0 0 0 0 0 0 0 0 0 0.08 0"/>
<feBlend mode="normal" in2="BackgroundImageFix" result="effect1_dropShadow_130_206"/>
<feBlend mode="normal" in="SourceGraphic" in2="effect1_dropShadow_130_206" result="shape"/>
</filter>
<linearGradient id="paint0_linear_130_206" x1="135.742" y1="256.28" x2="342.577" y2="127.752" gradientUnits="userSpaceOnUse">
<stop stop-color="white"/>
<stop offset="1" stop-color="white" stop-opacity="0"/>
</linearGradient>
<linearGradient id="paint1_linear_130_206" x1="357.226" y1="-75.0046" x2="357.226" y2="187.194" gradientUnits="userSpaceOnUse">
<stop stop-color="white"/>
<stop offset="1" stop-color="white" stop-opacity="0"/>
</linearGradient>
</defs>
</svg>
